HIERARCHY
ROOT root
{
	OFFSET	0	13.1	24.9
	CHANNELS 6  Xposition Yposition Zposition Xrotation Yrotation Zrotation
	JOINT spine_1
	{
		OFFSET	0	9.99999	0
		CHANNELS 3  Xrotation Yrotation Zrotation
		JOINT spine_2
		{
			OFFSET	0	112	-10
			CHANNELS 3  Xrotation Yrotation Zrotation
			JOINT spine_3
			{
				OFFSET	0	206.5	19.3
				CHANNELS 3  Xrotation Yrotation Zrotation
				JOINT spine_4
				{
					OFFSET	0	110.4	14.6
					CHANNELS 3  Xrotation Yrotation Zrotation
					JOINT neck_1
					{
						OFFSET	0	71.8	-50.3
						CHANNELS 3  Xrotation Yrotation Zrotation
						JOINT neck_2
						{
							OFFSET	0	86.2	-25.8
							CHANNELS 3  Xrotation Yrotation Zrotation
							JOINT head_ee
							{
								OFFSET	0	179.8	-8.7
								CHANNELS 3  Xrotation Yrotation Zrotation
								End Site
								{
									OFFSET	1	0	0
								}
							}
						}
					}
					JOINT left_clavicle
					{
						OFFSET	-43.2	22.4	-70.8
						CHANNELS 3  Xrotation Yrotation Zrotation
						JOINT left_shoulder
						{
							OFFSET	-93.9	-5.79999	48.7
							CHANNELS 3  Xrotation Yrotation Zrotation
							JOINT left_elbow
							{
								OFFSET	-291.4	-30.8	15.2
								CHANNELS 3  Xrotation Yrotation Zrotation
								JOINT left_lowarm_twist
								{
									OFFSET	-110.7	-3.89999	13.6
									CHANNELS 3  Xrotation Yrotation Zrotation
									JOINT left_hand
									{
										OFFSET	-110.7	-3.89999	13.6
										CHANNELS 3  Xrotation Yrotation Zrotation
										JOINT left_ee
										{
											OFFSET	-80.8	-5.10001	12.1
											CHANNELS 3  Xrotation Yrotation Zrotation
											End Site
											{
												OFFSET	1	0	0
											}
										}
									}
								}
							}
						}
					}
					JOINT right_clavicle
					{
						OFFSET	43.2	22.4	-70.8
						CHANNELS 3  Xrotation Yrotation Zrotation
						JOINT right_shoulder
						{
							OFFSET	93.9	-5.79999	48.7
							CHANNELS 3  Xrotation Yrotation Zrotation
							JOINT right_elbow
							{
								OFFSET	291.4	-30.8	15.2
								CHANNELS 3  Xrotation Yrotation Zrotation
								JOINT right_lowarm_twist
								{
									OFFSET	110.7	-3.89999	13.6
									CHANNELS 3  Xrotation Yrotation Zrotation
									JOINT right_hand
									{
										OFFSET	110.7	-3.89999	13.6
										CHANNELS 3  Xrotation Yrotation Zrotation
										JOINT right_ee
										{
											OFFSET	80.8	-5.10001	12.1
											CHANNELS 3  Xrotation Yrotation Zrotation
											End Site
											{
												OFFSET	1	0	0
											}
										}
									}
								}
							}
						}
					}
				}
			}
		}
	}
	JOINT left_hip
	{
		OFFSET	-82.8	-127.5	0.300001
		CHANNELS 3  Xrotation Yrotation Zrotation
		JOINT left_knee
		{
			OFFSET	-28.2	-396.7	2.2
			CHANNELS 3  Xrotation Yrotation Zrotation
			JOINT left_ankle
			{
				OFFSET	-11.7	-411.3	35.4
				CHANNELS 3  Xrotation Yrotation Zrotation
				JOINT left_toes
				{
					OFFSET	0	-60	-88.6
					CHANNELS 3  Xrotation Yrotation Zrotation
					JOINT left_foot_ee
					{
						OFFSET	-22.5	-16.5	-42.2
						CHANNELS 3  Xrotation Yrotation Zrotation
						End Site
						{
							OFFSET	1	0	0
						}
					}
				}
			}
		}
	}
	JOINT right_hip
	{
		OFFSET	82.8	-127.5	0.300001
		CHANNELS 3  Xrotation Yrotation Zrotation
		JOINT right_knee
		{
			OFFSET	28.2	-396.7	2.2
			CHANNELS 3  Xrotation Yrotation Zrotation
			JOINT right_ankle
			{
				OFFSET	11.7	-411.3	35.4
				CHANNELS 3  Xrotation Yrotation Zrotation
				JOINT right_toes
				{
					OFFSET	0	-60	-88.6
					CHANNELS 3  Xrotation Yrotation Zrotation
					JOINT right_foot_ee
					{
						OFFSET	22.5	-16.5	-42.2
						CHANNELS 3  Xrotation Yrotation Zrotation
						End Site
						{
							OFFSET	1	0	0
						}
					}
				}
			}
		}
	}
}
MOTION
Frames: 12
Frame Time: 0.02
2800.94 716.97 -1473.77 -4.09238364916 54.2775623846 3.58152300311 1.43917 0.295201 -0.0362541 1.43913 0.29691 -0.017396 1.43903 0.294981 0.038 1.43915 0.297281 -0.00906414 -9.29974 18.075 -1.12245 -9.64407 34.7419 3.43317 -0.0 0.0 -0.0 6.09388 18.9575 11.4317 -6.62928 -18.5947 49.1872 3.70431 -61.3954 2.19975 -50.8691 -4.17398 4.72758 -1.94408 25.5561 -0.807423 -0.0 0.0 -0.0 12.6864 19.3604 -25.5608 -36.174 28.3899 -58.6852 0.703544 19.2142 -0.119087 81.6896 4.03473 8.70213 -7.53396 -29.4844 30.5619 0.0 0.0 0.0 -16.0736 18.0398 10.577 -9.3499 0.270593 1.40782 39.6487 -5.16919 -4.90379 -8.32479 0.0 0.0 -0.0 0.0 -0.0 28.1895 4.66581 -11.5137 1.03217 0.0438777 0.152312 -18.8139 24.5854 -3.38276 -4.49082 0.0 0.0 0.0 0.0 0.0 
2790.41944345 720.519 -1477.68605541 -5.12435197594 54.6497818705 4.60626687416 1.64228 0.266037 0.0294441 1.64225 0.263624 0.0463131 1.64246 0.250786 0.0935359 1.64255 0.262411 0.0527548 -9.12322 18.2729 -1.24192 -9.44933 35.1746 3.30981 -0.0 0.0 -0.0 5.68538 19.4592 10.7798 -7.16369 -18.4928 49.8115 3.72126 -61.5051 2.21464 -50.4916 -4.12951 4.70837 -1.96773 26.0669 -0.693034 -0.0 0.0 -0.0 12.8205 19.5962 -25.8563 -35.3637 29.0947 -59.2251 0.709105 19.3549 -0.120923 82.9546 4.18333 8.76747 -7.54954 -29.78 30.3515 0.0 0.0 0.0 -16.2684 17.5429 10.4448 -6.14164 0.203709 0.920099 34.5108 -4.06189 -4.41322 -8.12483 0.0 0.0 -0.0 0.0 -0.0 27.9293 4.70826 -11.446 0.576088 0.0241505 0.0851053 -12.8717 25.4774 -2.32841 -4.19861 0.0 0.0 0.0 0.0 0.0 
2773.71063535 724.258 -1484.24157107 -5.45622479267 54.3587890569 5.06179965718 1.50216 0.242112 0.0664123 1.50214 0.237395 0.081684 1.50248 0.218254 0.124074 1.50253 0.23511 0.0880473 -8.75544 18.1951 -1.31145 -9.01997 35.0314 3.08989 -0.0 0.0 -0.0 5.48382 20.1743 10.4443 -7.77588 -18.3537 50.1468 3.61677 -60.8165 2.12311 -50.7815 -4.16365 4.72315 -1.99197 26.47 -0.632639 -0.0 0.0 -0.0 12.8227 19.568 -25.8633 -35.4658 30.446 -58.9028 0.716758 19.548 -0.123472 82.6166 4.14348 8.75033 -7.5481 -29.7007 30.4258 0.0 0.0 0.0 -16.5114 17.3251 10.3588 -6.51239 0.212833 0.976263 33.0885 -5.2183 -4.28754 -7.96027 0.0 0.0 -0.0 0.0 -0.0 26.9134 4.67358 -11.3842 1.82594 0.0794861 0.268903 -13.5447 25.091 -2.4408 -4.51216 0.0 0.0 0.0 0.0 0.0 
2773.85752149 724.258 -1484.61580369 -5.35398261956 53.5727253789 4.93536945137 1.50216 0.242112 0.0664123 1.50214 0.237395 0.081684 1.50248 0.218254 0.124074 1.50253 0.23511 0.0880473 -8.75544 18.1951 -1.31145 -9.01997 35.0314 3.08989 -0.0 0.0 -0.0 5.48382 20.1743 10.4443 -7.77588 -18.3537 50.1468 3.61677 -60.8165 2.12311 -50.7815 -4.16365 4.72315 -1.99197 26.47 -0.632639 -0.0 0.0 -0.0 12.8227 19.568 -25.8633 -35.4658 30.446 -58.9028 0.716758 19.548 -0.123472 82.6166 4.14348 8.75033 -7.5481 -29.7007 30.4258 0.0 0.0 0.0 -16.5114 17.3251 10.3588 -6.51239 0.212833 0.976263 33.0885 -5.2183 -4.28754 -7.96027 0.0 0.0 -0.0 0.0 -0.0 26.9134 4.67358 -11.3842 1.82594 0.0794861 0.268903 -13.5447 25.091 -2.4408 -4.51216 0.0 0.0 0.0 0.0 0.0 
2743.37832297 725.754 -1494.6265754 -6.16728895859 55.8908730837 5.65912816684 1.65954 0.00870882 -0.0439375 1.65954 0.011487 -0.0432943 1.65953 0.0191655 -0.040485 1.65953 0.0125311 -0.0430037 -8.11157 18.4834 -2.28185 -8.27326 36.1611 1.97839 -0.0 0.0 -0.0 5.24059 20.9587 10.0515 -9.85053 -18.0016 51.5552 3.42146 -59.4448 1.95373 -50.0183 -4.07393 4.68386 -1.68398 26.5217 1.09418 -0.0 0.0 -0.0 12.6311 19.7045 -25.4095 -33.7901 31.7913 -58.1226 0.738315 20.0895 -0.130781 83.0843 4.19864 8.77398 -7.55694 -29.6384 30.5489 0.0 0.0 0.0 -17.5826 17.8605 9.72724 -5.05849 0.174972 0.756358 31.8274 -4.78183 -4.15223 -7.53972 0.0 0.0 -0.0 0.0 -0.0 25.1247 5.14784 -10.2748 2.24543 0.0989578 0.330322 -8.57637 27.4192 -1.57921 -2.79943 0.0 0.0 0.0 0.0 0.0 
2730.43690825 729.14 -1500.36779792 -5.74815679569 55.422578541 4.99628218482 1.66186 0.0408507 0.0469883 1.66186 0.0377779 0.0494925 1.66189 0.0281543 0.0555339 1.66189 0.0365715 0.0503905 -8.23218 18.2812 -2.78008 -8.40177 36.1374 1.47938 -0.0 0.0 -0.0 4.82422 21.6227 9.42068 -10.7748 -17.8775 52.185 3.34659 -58.8875 1.88944 -50.1377 -4.08793 4.69008 -1.6732 26.5726 1.17729 -0.0 0.0 -0.0 12.6014 20.4481 -25.2874 -31.6855 32.608 -58.4402 0.747677 20.3235 -0.134015 83.3544 4.23059 8.78744 -7.49497 -29.544 30.2463 0.0 0.0 0.0 -17.442 17.1466 9.57049 -4.68626 0.164381 0.700215 30.0414 -3.96055 -3.9533 -7.69757 0.0 0.0 -0.0 0.0 -0.0 24.4559 5.2202 -10.3774 2.80652 0.125705 0.412251 -9.33272 27.1856 -1.71557 -2.64389 0.0 0.0 0.0 0.0 0.0 
2717.75193893 729.483 -1501.84030095 -5.97383699445 55.7800399422 5.58154535535 1.69764 -0.051793 0.0112069 1.69764 -0.0524011 0.00788844 1.69763 -0.0529632 -0.00173296 1.69764 -0.0525722 0.00665334 -8.26654 18.247 -3.15858 -8.43473 36.3363 1.10905 -0.0 0.0 -0.0 4.59302 22.0083 9.07722 -11.8787 -17.7266 52.7951 3.29105 -58.4622 1.842 -49.908 -4.06101 4.67808 -1.53647 26.2584 1.79023 -0.0 0.0 -0.0 12.4749 20.6857 -24.977 -30.6646 33.0446 -58.206 0.75016 20.3854 -0.134878 83.488 4.24642 8.79404 -7.47418 -29.4613 30.198 0.0 0.0 0.0 -17.6575 17.2666 9.3857 -4.66032 0.16363 0.696305 30.0785 -3.71129 -3.95428 -7.56734 0.0 0.0 -0.0 0.0 -0.0 23.4117 5.21838 -10.6113 3.33853 0.151808 0.489693 -7.97067 27.889 -1.47498 -1.9872 0.0 0.0 0.0 0.0 0.0 
2709.70341195 729.821 -1506.92947981 -6.47606884859 56.249795376 6.08779294395 1.61492 -0.0490244 -0.0945043 1.61493 -0.0429115 -0.0974323 1.615 -0.0244054 -0.103628 1.61499 -0.0404652 -0.0984734 -8.70585 18.1565 -3.56906 -8.94069 36.487 0.846062 -0.0 0.0 -0.0 4.48065 22.4319 8.90779 -12.5179 -17.5333 53.1157 3.24023 -58.0638 1.79878 -49.7674 -4.04456 4.67068 -1.45103 26.0422 2.16732 -0.0 0.0 -0.0 12.409 20.5453 -24.8355 -29.3798 33.3955 -58.4368 0.789855 21.3689 -0.149025 83.6806 4.26924 8.80348 -7.40775 -29.4089 29.8231 0.0 0.0 0.0 -17.8835 17.5833 8.8697 -5.48539 0.186668 0.82083 30.5009 -3.23797 -3.99379 -7.075 0.0 0.0 -0.0 0.0 -0.0 22.9405 5.64327 -10.1778 4.33003 0.202374 0.633375 -6.7386 28.6478 -1.25651 -1.41245 0.0 0.0 0.0 0.0 0.0 
2697.14792483 727.288 -1512.06948212 -7.12970664178 55.9831157329 6.92088904018 1.67052 -0.00873355 -0.17983 1.67054 0.00272715 -0.180021 1.67053 0.0353712 -0.176533 1.67049 0.00704728 -0.179904 -9.05476 17.9181 -3.90458 -9.33546 36.2944 0.583353 -0.0 0.0 -0.0 4.29125 22.9744 8.63029 -13.8294 -17.1955 53.1776 3.19597 -57.7093 1.76129 -49.5267 -4.01642 4.65792 -1.36482 25.5402 2.42453 -0.0 0.0 -0.0 12.4021 20.6709 -24.8101 -28.5712 33.4313 -58.2994 0.819427 22.0931 -0.159974 83.8997 4.29527 8.81414 -7.38689 -29.4251 29.6721 0.0 0.0 0.0 -17.6826 17.8627 8.48992 -6.18119 0.2047 0.926087 30.8986 -2.94657 -4.03256 -6.75781 0.0 0.0 -0.0 0.0 -0.0 22.0935 6.34221 -10.5374 5.18578 0.248016 0.756679 -5.67719 29.4094 -1.06716 -0.944888 0.0 0.0 0.0 0.0 0.0 
2685.54162352 732.354 -1518.44926148 -7.22629600314 54.9582084814 7.09319113588 1.69546 0.139425 -0.265229 1.69548 0.15602 -0.25582 1.69478 0.199786 -0.223319 1.69474 0.16201 -0.252069 -9.47889 18.1265 -3.6261 -9.84871 36.5319 1.07737 -0.0 0.0 -0.0 4.25603 23.5467 8.57226 -15.7211 -16.7406 53.2789 3.07602 -56.7125 1.66045 -49.3875 -4.00018 4.65049 -1.33458 24.8469 2.28729 -0.0 0.0 -0.0 12.5915 20.6912 -25.2461 -27.1916 33.4757 -57.8367 0.83554 22.4846 -0.166085 84.013 4.30873 8.81961 -7.37017 -29.4775 29.5108 0.0 0.0 0.0 -15.8624 17.7394 7.21541 -8.438 0.254363 1.26883 31.1176 -2.42554 -4.04996 -6.48686 0.0 0.0 -0.0 0.0 -0.0 21.535 6.83361 -10.9123 5.49865 0.265163 0.801593 -5.13922 29.62 -0.967684 -0.684146 0.0 0.0 0.0 0.0 0.0 
2679.02960439 735.427 -1524.41027983 -7.14868066739 53.9981756055 7.00706794816 1.81064 0.200774 -0.224904 1.81064 0.214678 -0.211672 1.80983 0.249135 -0.169775 1.80986 0.219196 -0.206991 -9.78129 18.3374 -2.8246 -10.2221 36.4209 2.03532 -0.0 0.0 -0.0 4.21387 23.6492 8.51218 -17.1295 -15.5597 53.4546 2.98812 -55.9468 1.58729 -49.2159 -3.98018 4.64127 -1.22721 24.1235 2.57737 -0.0 0.0 -0.0 12.6368 20.7346 -25.3477 -26.1451 33.9061 -57.9688 0.858287 23.0335 -0.174885 84.2961 4.34244 8.83316 -7.26721 -29.4465 28.8842 0.0 0.0 0.0 -14.6849 17.6446 5.57157 -10.2527 0.284479 1.54565 32.3835 -3.0617 -4.18796 -5.97045 0.0 0.0 -0.0 0.0 -0.0 20.7794 7.24111 -10.9679 5.55092 0.268052 0.809087 -4.62503 29.8776 -0.872949 -0.421497 0.0 0.0 0.0 0.0 0.0 
2670.44193799 733.347 -1530.84656534 -6.62779786894 52.0949720181 6.56684369313 1.8034 0.273701 -0.315286 1.8034 0.293209 -0.297231 1.80186 0.341761 -0.239827 1.8019 0.299596 -0.290792 -10.1893 18.2199 -3.10648 -10.6943 36.4183 1.88274 -0.0 0.0 -0.0 4.16779 24.2175 8.44036 -18.2901 -15.6799 53.5681 2.93197 -55.4412 1.54091 -49.1084 -3.96767 4.63546 -1.18917 24.0872 2.77806 -0.0 0.0 -0.0 12.8347 20.6483 -25.8132 -25.5055 34.0239 -57.7097 0.866365 23.2274 -0.178058 84.1472 4.3247 8.82605 -7.30634 -29.4803 29.0995 0.0 0.0 0.0 -13.5458 17.6376 4.60103 -11.0562 0.29501 1.66849 31.6301 -2.25536 -4.10162 -6.07668 0.0 0.0 -0.0 0.0 -0.0 20.1782 7.95491 -11.1967 5.91843 0.288557 0.861708 -4.23298 30.0357 -0.799977 -0.206335 0.0 0.0 0.0 0.0 0.0 
